<mxfile host="app.diagrams.net" modified="2024-06-24T20:59:14.342Z" agent="Mozilla/5.0 (Windows NT 10.0; Win64; x64) AppleWebKit/537.36 (KHTML, like Gecko) Chrome/126.0.0.0 Safari/537.36" etag="hCL2093R2jxln_3gPA5T" version="24.6.2" type="device">
  <diagram name="Page-1" id="16e2658f-23c8-b752-8be9-c03fbebb8bbe">
    <mxGraphModel dx="993" dy="1097" grid="1" gridSize="10" guides="1" tooltips="1" connect="1" arrows="1" fold="1" page="1" pageScale="1" pageWidth="1100" pageHeight="850" background="none" math="0" shadow="0">
      <root>
        <mxCell id="0" />
        <mxCell id="1" parent="0" />
        <mxCell id="kKuWqt6EDimaRMjclbAV-14" value="" style="rounded=0;whiteSpace=wrap;html=1;" vertex="1" parent="1">
          <mxGeometry x="320" y="40" width="100" height="120" as="geometry" />
        </mxCell>
        <mxCell id="kKuWqt6EDimaRMjclbAV-17" value="&lt;font style=&quot;font-size: 12px;&quot;&gt;SDA&lt;/font&gt;" style="text;html=1;align=left;verticalAlign=bottom;whiteSpace=wrap;rounded=0;fillColor=none;spacing=0;spacingRight=8;fontSize=14;spacingLeft=8;" vertex="1" parent="1">
          <mxGeometry x="320" y="100" width="120" height="20" as="geometry" />
        </mxCell>
        <mxCell id="kKuWqt6EDimaRMjclbAV-18" value="&lt;font style=&quot;font-size: 12px;&quot;&gt;SCL&lt;/font&gt;" style="text;html=1;align=left;verticalAlign=bottom;whiteSpace=wrap;rounded=0;fillColor=none;spacing=0;spacingRight=8;fontSize=14;spacingLeft=8;" vertex="1" parent="1">
          <mxGeometry x="320" y="120" width="120" height="20" as="geometry" />
        </mxCell>
        <mxCell id="kKuWqt6EDimaRMjclbAV-19" value="&lt;div style=&quot;border-color: var(--border-color);&quot;&gt;I2C LCD DISPLAY&lt;/div&gt;" style="text;html=1;align=center;verticalAlign=top;whiteSpace=wrap;rounded=0;fontSize=16;fontStyle=1;spacingTop=0;" vertex="1" parent="1">
          <mxGeometry x="320" y="40" width="100" height="50" as="geometry" />
        </mxCell>
        <mxCell id="kKuWqt6EDimaRMjclbAV-22" value="" style="endArrow=none;html=1;rounded=0;exitX=1;exitY=0.5;exitDx=0;exitDy=0;" edge="1" parent="1" source="kKuWqt6EDimaRMjclbAV-5">
          <mxGeometry width="50" height="50" relative="1" as="geometry">
            <mxPoint x="230" y="240" as="sourcePoint" />
            <mxPoint x="290" y="150" as="targetPoint" />
          </mxGeometry>
        </mxCell>
        <mxCell id="kKuWqt6EDimaRMjclbAV-23" value="" style="endArrow=none;html=1;rounded=0;" edge="1" parent="1">
          <mxGeometry width="50" height="50" relative="1" as="geometry">
            <mxPoint x="290" y="150" as="sourcePoint" />
            <mxPoint x="290" y="110" as="targetPoint" />
          </mxGeometry>
        </mxCell>
        <mxCell id="kKuWqt6EDimaRMjclbAV-24" value="" style="endArrow=none;html=1;rounded=0;exitX=0;exitY=0.5;exitDx=0;exitDy=0;" edge="1" parent="1" source="kKuWqt6EDimaRMjclbAV-17">
          <mxGeometry width="50" height="50" relative="1" as="geometry">
            <mxPoint x="290" y="160" as="sourcePoint" />
            <mxPoint x="290" y="110" as="targetPoint" />
          </mxGeometry>
        </mxCell>
        <mxCell id="kKuWqt6EDimaRMjclbAV-25" value="" style="endArrow=none;html=1;rounded=0;exitX=1;exitY=0.5;exitDx=0;exitDy=0;" edge="1" parent="1">
          <mxGeometry width="50" height="50" relative="1" as="geometry">
            <mxPoint x="200" y="170" as="sourcePoint" />
            <mxPoint x="300" y="170" as="targetPoint" />
          </mxGeometry>
        </mxCell>
        <mxCell id="kKuWqt6EDimaRMjclbAV-26" value="" style="endArrow=none;html=1;rounded=0;" edge="1" parent="1">
          <mxGeometry width="50" height="50" relative="1" as="geometry">
            <mxPoint x="300" y="170" as="sourcePoint" />
            <mxPoint x="300" y="130" as="targetPoint" />
          </mxGeometry>
        </mxCell>
        <mxCell id="kKuWqt6EDimaRMjclbAV-27" value="" style="endArrow=none;html=1;rounded=0;exitX=0;exitY=0.5;exitDx=0;exitDy=0;" edge="1" parent="1">
          <mxGeometry width="50" height="50" relative="1" as="geometry">
            <mxPoint x="320" y="130" as="sourcePoint" />
            <mxPoint x="300" y="130" as="targetPoint" />
          </mxGeometry>
        </mxCell>
        <mxCell id="kKuWqt6EDimaRMjclbAV-35" value="" style="endArrow=none;html=1;rounded=0;exitX=1;exitY=0.5;exitDx=0;exitDy=0;" edge="1" parent="1" source="kKuWqt6EDimaRMjclbAV-34">
          <mxGeometry width="50" height="50" relative="1" as="geometry">
            <mxPoint x="340" y="250" as="sourcePoint" />
            <mxPoint x="450" y="210" as="targetPoint" />
          </mxGeometry>
        </mxCell>
        <mxCell id="kKuWqt6EDimaRMjclbAV-36" value="" style="endArrow=none;html=1;rounded=0;" edge="1" parent="1">
          <mxGeometry width="50" height="50" relative="1" as="geometry">
            <mxPoint x="450" y="130" as="sourcePoint" />
            <mxPoint x="450" y="210" as="targetPoint" />
          </mxGeometry>
        </mxCell>
        <mxCell id="kKuWqt6EDimaRMjclbAV-37" value="" style="endArrow=none;html=1;rounded=0;" edge="1" parent="1">
          <mxGeometry width="50" height="50" relative="1" as="geometry">
            <mxPoint x="450" y="130" as="sourcePoint" />
            <mxPoint x="480" y="130" as="targetPoint" />
          </mxGeometry>
        </mxCell>
        <mxCell id="kKuWqt6EDimaRMjclbAV-42" value="" style="group" vertex="1" connectable="0" parent="1">
          <mxGeometry x="480" y="60" width="120" height="100" as="geometry" />
        </mxCell>
        <mxCell id="kKuWqt6EDimaRMjclbAV-28" value="" style="rounded=0;whiteSpace=wrap;html=1;" vertex="1" parent="kKuWqt6EDimaRMjclbAV-42">
          <mxGeometry width="100" height="100" as="geometry" />
        </mxCell>
        <mxCell id="kKuWqt6EDimaRMjclbAV-31" value="&lt;span style=&quot;font-size: 12px;&quot;&gt;SIGNAL&lt;/span&gt;" style="text;html=1;align=left;verticalAlign=bottom;whiteSpace=wrap;rounded=0;fillColor=none;spacing=0;spacingRight=8;fontSize=14;spacingLeft=8;" vertex="1" parent="kKuWqt6EDimaRMjclbAV-42">
          <mxGeometry y="60" width="90" height="20" as="geometry" />
        </mxCell>
        <mxCell id="kKuWqt6EDimaRMjclbAV-33" value="&lt;div style=&quot;border-color: var(--border-color);&quot;&gt;DHT11&lt;/div&gt;&lt;div style=&quot;border-color: var(--border-color);&quot;&gt;SENSOR&lt;/div&gt;" style="text;html=1;align=center;verticalAlign=top;whiteSpace=wrap;rounded=0;fontSize=16;fontStyle=1;spacingTop=0;" vertex="1" parent="kKuWqt6EDimaRMjclbAV-42">
          <mxGeometry width="100" height="50" as="geometry" />
        </mxCell>
        <mxCell id="kKuWqt6EDimaRMjclbAV-43" value="" style="group" vertex="1" connectable="0" parent="1">
          <mxGeometry x="650" y="80" width="120" height="120" as="geometry" />
        </mxCell>
        <mxCell id="kKuWqt6EDimaRMjclbAV-38" value="" style="rounded=0;whiteSpace=wrap;html=1;" vertex="1" parent="kKuWqt6EDimaRMjclbAV-43">
          <mxGeometry width="100" height="120" as="geometry" />
        </mxCell>
        <mxCell id="kKuWqt6EDimaRMjclbAV-39" value="&lt;font style=&quot;font-size: 12px;&quot;&gt;X&lt;/font&gt;" style="text;html=1;align=left;verticalAlign=bottom;whiteSpace=wrap;rounded=0;fillColor=none;spacing=0;spacingRight=8;fontSize=14;spacingLeft=8;" vertex="1" parent="kKuWqt6EDimaRMjclbAV-43">
          <mxGeometry y="60" width="120" height="20" as="geometry" />
        </mxCell>
        <mxCell id="kKuWqt6EDimaRMjclbAV-40" value="&lt;font style=&quot;font-size: 12px;&quot;&gt;Y&lt;/font&gt;" style="text;html=1;align=left;verticalAlign=bottom;whiteSpace=wrap;rounded=0;fillColor=none;spacing=0;spacingRight=8;fontSize=14;spacingLeft=8;" vertex="1" parent="kKuWqt6EDimaRMjclbAV-43">
          <mxGeometry y="80" width="120" height="20" as="geometry" />
        </mxCell>
        <mxCell id="kKuWqt6EDimaRMjclbAV-41" value="&lt;div style=&quot;border-color: var(--border-color);&quot;&gt;JOYSTICK&lt;/div&gt;" style="text;html=1;align=center;verticalAlign=top;whiteSpace=wrap;rounded=0;fontSize=16;fontStyle=1;spacingTop=0;" vertex="1" parent="kKuWqt6EDimaRMjclbAV-43">
          <mxGeometry width="100" height="50" as="geometry" />
        </mxCell>
        <mxCell id="kKuWqt6EDimaRMjclbAV-4" value="" style="rounded=0;whiteSpace=wrap;html=1;" vertex="1" parent="1">
          <mxGeometry x="80" y="50" width="120" height="450" as="geometry" />
        </mxCell>
        <mxCell id="kKuWqt6EDimaRMjclbAV-5" value="&lt;font style=&quot;font-size: 12px;&quot;&gt;A4 - SDA&lt;/font&gt;" style="text;html=1;align=right;verticalAlign=middle;whiteSpace=wrap;rounded=0;fillColor=none;spacing=0;spacingRight=8;fontSize=14;" vertex="1" parent="1">
          <mxGeometry x="80" y="140" width="120" height="20" as="geometry" />
        </mxCell>
        <mxCell id="kKuWqt6EDimaRMjclbAV-13" value="&lt;font style=&quot;font-size: 12px;&quot;&gt;A5 - SCL&lt;/font&gt;" style="text;html=1;align=right;verticalAlign=middle;whiteSpace=wrap;rounded=0;fillColor=none;spacing=0;spacingRight=8;fontSize=14;" vertex="1" parent="1">
          <mxGeometry x="80" y="160" width="118.5" height="21" as="geometry" />
        </mxCell>
        <mxCell id="kKuWqt6EDimaRMjclbAV-20" value="&lt;div style=&quot;font-size: 16px;&quot;&gt;ARDUINO&lt;/div&gt;&lt;div style=&quot;font-size: 16px;&quot;&gt;UNO R3&lt;/div&gt;" style="text;html=1;align=center;verticalAlign=top;whiteSpace=wrap;rounded=0;fontSize=16;fontStyle=1;spacingTop=0;" vertex="1" parent="1">
          <mxGeometry x="80" y="50" width="120" height="50" as="geometry" />
        </mxCell>
        <mxCell id="kKuWqt6EDimaRMjclbAV-34" value="&lt;font style=&quot;font-size: 12px;&quot;&gt;D3&lt;/font&gt;" style="text;html=1;align=right;verticalAlign=middle;whiteSpace=wrap;rounded=0;fillColor=none;spacing=0;spacingRight=8;fontSize=14;" vertex="1" parent="1">
          <mxGeometry x="81.5" y="200" width="118.5" height="21" as="geometry" />
        </mxCell>
        <mxCell id="kKuWqt6EDimaRMjclbAV-44" value="&lt;font style=&quot;font-size: 12px;&quot;&gt;A1&lt;/font&gt;" style="text;html=1;align=right;verticalAlign=middle;whiteSpace=wrap;rounded=0;fillColor=none;spacing=0;spacingRight=8;fontSize=14;" vertex="1" parent="1">
          <mxGeometry x="81.5" y="240" width="118.5" height="21" as="geometry" />
        </mxCell>
        <mxCell id="kKuWqt6EDimaRMjclbAV-45" value="&lt;font style=&quot;font-size: 12px;&quot;&gt;A2&lt;/font&gt;" style="text;html=1;align=right;verticalAlign=middle;whiteSpace=wrap;rounded=0;fillColor=none;spacing=0;spacingRight=8;fontSize=14;" vertex="1" parent="1">
          <mxGeometry x="81.5" y="261" width="118.5" height="21" as="geometry" />
        </mxCell>
        <mxCell id="kKuWqt6EDimaRMjclbAV-46" value="" style="endArrow=none;html=1;rounded=0;exitX=1;exitY=0.5;exitDx=0;exitDy=0;" edge="1" parent="1" source="kKuWqt6EDimaRMjclbAV-44">
          <mxGeometry width="50" height="50" relative="1" as="geometry">
            <mxPoint x="220" y="280" as="sourcePoint" />
            <mxPoint x="610" y="250" as="targetPoint" />
          </mxGeometry>
        </mxCell>
        <mxCell id="kKuWqt6EDimaRMjclbAV-50" value="" style="endArrow=none;html=1;rounded=0;exitX=1;exitY=0.5;exitDx=0;exitDy=0;" edge="1" parent="1" source="kKuWqt6EDimaRMjclbAV-45">
          <mxGeometry width="50" height="50" relative="1" as="geometry">
            <mxPoint x="220" y="272" as="sourcePoint" />
            <mxPoint x="630" y="270" as="targetPoint" />
          </mxGeometry>
        </mxCell>
        <mxCell id="kKuWqt6EDimaRMjclbAV-54" value="" style="rounded=0;whiteSpace=wrap;html=1;" vertex="1" parent="1">
          <mxGeometry x="800" y="300" width="100" height="170" as="geometry" />
        </mxCell>
        <mxCell id="kKuWqt6EDimaRMjclbAV-55" value="&lt;font style=&quot;font-size: 12px;&quot;&gt;RST&lt;/font&gt;" style="text;html=1;align=left;verticalAlign=bottom;whiteSpace=wrap;rounded=0;fillColor=none;spacing=0;spacingRight=8;fontSize=14;spacingLeft=8;" vertex="1" parent="1">
          <mxGeometry x="800" y="360" width="90" height="20" as="geometry" />
        </mxCell>
        <mxCell id="kKuWqt6EDimaRMjclbAV-56" value="&lt;font style=&quot;font-size: 12px;&quot;&gt;SDA&lt;/font&gt;" style="text;html=1;align=left;verticalAlign=bottom;whiteSpace=wrap;rounded=0;fillColor=none;spacing=0;spacingRight=8;fontSize=14;spacingLeft=8;" vertex="1" parent="1">
          <mxGeometry x="800" y="380" width="90" height="20" as="geometry" />
        </mxCell>
        <mxCell id="kKuWqt6EDimaRMjclbAV-57" value="&lt;div style=&quot;border-color: var(--border-color);&quot;&gt;RFID&lt;/div&gt;&lt;div style=&quot;border-color: var(--border-color);&quot;&gt;RC522&lt;/div&gt;" style="text;html=1;align=center;verticalAlign=top;whiteSpace=wrap;rounded=0;fontSize=16;fontStyle=1;spacingTop=0;" vertex="1" parent="1">
          <mxGeometry x="800" y="300" width="100" height="50" as="geometry" />
        </mxCell>
        <mxCell id="kKuWqt6EDimaRMjclbAV-58" value="&lt;font style=&quot;font-size: 12px;&quot;&gt;MOSI&lt;/font&gt;" style="text;html=1;align=left;verticalAlign=bottom;whiteSpace=wrap;rounded=0;fillColor=none;spacing=0;spacingRight=8;fontSize=14;spacingLeft=8;" vertex="1" parent="1">
          <mxGeometry x="800" y="400" width="90" height="20" as="geometry" />
        </mxCell>
        <mxCell id="kKuWqt6EDimaRMjclbAV-59" value="&lt;font style=&quot;font-size: 12px;&quot;&gt;MISO&lt;/font&gt;" style="text;html=1;align=left;verticalAlign=bottom;whiteSpace=wrap;rounded=0;fillColor=none;spacing=0;spacingRight=8;fontSize=14;spacingLeft=8;" vertex="1" parent="1">
          <mxGeometry x="800" y="420" width="90" height="20" as="geometry" />
        </mxCell>
        <mxCell id="kKuWqt6EDimaRMjclbAV-60" value="&lt;font style=&quot;font-size: 12px;&quot;&gt;SCK&lt;/font&gt;" style="text;html=1;align=left;verticalAlign=bottom;whiteSpace=wrap;rounded=0;fillColor=none;spacing=0;spacingRight=8;fontSize=14;spacingLeft=8;" vertex="1" parent="1">
          <mxGeometry x="800" y="440" width="90" height="20" as="geometry" />
        </mxCell>
        <mxCell id="kKuWqt6EDimaRMjclbAV-61" value="" style="endArrow=none;html=1;rounded=0;entryX=0;entryY=0.5;entryDx=0;entryDy=0;exitX=0.997;exitY=0.714;exitDx=0;exitDy=0;exitPerimeter=0;" edge="1" parent="1" source="kKuWqt6EDimaRMjclbAV-4" target="kKuWqt6EDimaRMjclbAV-55">
          <mxGeometry width="50" height="50" relative="1" as="geometry">
            <mxPoint x="300" y="370" as="sourcePoint" />
            <mxPoint x="600" y="370" as="targetPoint" />
          </mxGeometry>
        </mxCell>
        <mxCell id="kKuWqt6EDimaRMjclbAV-62" value="" style="endArrow=none;html=1;rounded=0;entryX=0;entryY=0.5;entryDx=0;entryDy=0;exitX=1.004;exitY=0.89;exitDx=0;exitDy=0;exitPerimeter=0;" edge="1" parent="1" source="kKuWqt6EDimaRMjclbAV-4" target="kKuWqt6EDimaRMjclbAV-60">
          <mxGeometry width="50" height="50" relative="1" as="geometry">
            <mxPoint x="440" y="449.83" as="sourcePoint" />
            <mxPoint x="640" y="449.83" as="targetPoint" />
          </mxGeometry>
        </mxCell>
        <mxCell id="kKuWqt6EDimaRMjclbAV-63" value="" style="endArrow=none;html=1;rounded=0;entryX=0;entryY=0.5;entryDx=0;entryDy=0;exitX=1;exitY=0.75;exitDx=0;exitDy=0;" edge="1" parent="1" source="kKuWqt6EDimaRMjclbAV-4" target="kKuWqt6EDimaRMjclbAV-56">
          <mxGeometry width="50" height="50" relative="1" as="geometry">
            <mxPoint x="440" y="389.83" as="sourcePoint" />
            <mxPoint x="640" y="389.83" as="targetPoint" />
          </mxGeometry>
        </mxCell>
        <mxCell id="kKuWqt6EDimaRMjclbAV-64" value="" style="endArrow=none;html=1;rounded=0;entryX=0;entryY=0.5;entryDx=0;entryDy=0;exitX=0.997;exitY=0.792;exitDx=0;exitDy=0;exitPerimeter=0;" edge="1" parent="1" source="kKuWqt6EDimaRMjclbAV-4" target="kKuWqt6EDimaRMjclbAV-58">
          <mxGeometry width="50" height="50" relative="1" as="geometry">
            <mxPoint x="440" y="409.83" as="sourcePoint" />
            <mxPoint x="640" y="409.83" as="targetPoint" />
          </mxGeometry>
        </mxCell>
        <mxCell id="kKuWqt6EDimaRMjclbAV-65" value="" style="endArrow=none;html=1;rounded=0;entryX=0;entryY=0.5;entryDx=0;entryDy=0;exitX=1.012;exitY=0.845;exitDx=0;exitDy=0;exitPerimeter=0;" edge="1" parent="1" source="kKuWqt6EDimaRMjclbAV-4" target="kKuWqt6EDimaRMjclbAV-59">
          <mxGeometry width="50" height="50" relative="1" as="geometry">
            <mxPoint x="440" y="429.83" as="sourcePoint" />
            <mxPoint x="640" y="429.83" as="targetPoint" />
          </mxGeometry>
        </mxCell>
        <mxCell id="kKuWqt6EDimaRMjclbAV-66" value="&lt;font style=&quot;font-size: 12px;&quot;&gt;D9&lt;/font&gt;" style="text;html=1;align=right;verticalAlign=middle;whiteSpace=wrap;rounded=0;fillColor=none;spacing=0;spacingRight=8;fontSize=14;" vertex="1" parent="1">
          <mxGeometry x="80" y="360" width="118.5" height="21" as="geometry" />
        </mxCell>
        <mxCell id="kKuWqt6EDimaRMjclbAV-67" value="&lt;font style=&quot;font-size: 12px;&quot;&gt;D10&lt;/font&gt;" style="text;html=1;align=right;verticalAlign=middle;whiteSpace=wrap;rounded=0;fillColor=none;spacing=0;spacingRight=8;fontSize=14;" vertex="1" parent="1">
          <mxGeometry x="80" y="377" width="118.5" height="21" as="geometry" />
        </mxCell>
        <mxCell id="kKuWqt6EDimaRMjclbAV-68" value="&lt;font style=&quot;font-size: 12px;&quot;&gt;D11&lt;/font&gt;" style="text;html=1;align=right;verticalAlign=middle;whiteSpace=wrap;rounded=0;fillColor=none;spacing=0;spacingRight=8;fontSize=14;" vertex="1" parent="1">
          <mxGeometry x="80" y="398" width="118.5" height="21" as="geometry" />
        </mxCell>
        <mxCell id="kKuWqt6EDimaRMjclbAV-69" value="&lt;font style=&quot;font-size: 12px;&quot;&gt;D12&lt;/font&gt;" style="text;html=1;align=right;verticalAlign=middle;whiteSpace=wrap;rounded=0;fillColor=none;spacing=0;spacingRight=8;fontSize=14;" vertex="1" parent="1">
          <mxGeometry x="80" y="419" width="118.5" height="21" as="geometry" />
        </mxCell>
        <mxCell id="kKuWqt6EDimaRMjclbAV-70" value="&lt;font style=&quot;font-size: 12px;&quot;&gt;D13&lt;/font&gt;" style="text;html=1;align=right;verticalAlign=middle;whiteSpace=wrap;rounded=0;fillColor=none;spacing=0;spacingRight=8;fontSize=14;" vertex="1" parent="1">
          <mxGeometry x="80" y="439" width="118.5" height="21" as="geometry" />
        </mxCell>
        <mxCell id="kKuWqt6EDimaRMjclbAV-90" value="" style="endArrow=none;html=1;rounded=0;entryX=0;entryY=0.5;entryDx=0;entryDy=0;" edge="1" parent="1" target="kKuWqt6EDimaRMjclbAV-39">
          <mxGeometry width="50" height="50" relative="1" as="geometry">
            <mxPoint x="610" y="150" as="sourcePoint" />
            <mxPoint x="690" y="350" as="targetPoint" />
          </mxGeometry>
        </mxCell>
        <mxCell id="kKuWqt6EDimaRMjclbAV-91" value="" style="endArrow=none;html=1;rounded=0;entryX=0;entryY=0.5;entryDx=0;entryDy=0;" edge="1" parent="1" target="kKuWqt6EDimaRMjclbAV-40">
          <mxGeometry width="50" height="50" relative="1" as="geometry">
            <mxPoint x="630" y="170" as="sourcePoint" />
            <mxPoint x="610" y="181" as="targetPoint" />
          </mxGeometry>
        </mxCell>
        <mxCell id="kKuWqt6EDimaRMjclbAV-92" value="" style="endArrow=none;html=1;rounded=0;" edge="1" parent="1">
          <mxGeometry width="50" height="50" relative="1" as="geometry">
            <mxPoint x="630" y="270" as="sourcePoint" />
            <mxPoint x="630" y="170" as="targetPoint" />
          </mxGeometry>
        </mxCell>
        <mxCell id="kKuWqt6EDimaRMjclbAV-93" value="" style="endArrow=none;html=1;rounded=0;" edge="1" parent="1">
          <mxGeometry width="50" height="50" relative="1" as="geometry">
            <mxPoint x="610" y="250" as="sourcePoint" />
            <mxPoint x="610" y="150" as="targetPoint" />
          </mxGeometry>
        </mxCell>
        <mxCell id="kKuWqt6EDimaRMjclbAV-96" value="" style="group" vertex="1" connectable="0" parent="1">
          <mxGeometry x="650" y="249" width="120" height="100" as="geometry" />
        </mxCell>
        <mxCell id="kKuWqt6EDimaRMjclbAV-97" value="" style="rounded=0;whiteSpace=wrap;html=1;" vertex="1" parent="kKuWqt6EDimaRMjclbAV-96">
          <mxGeometry width="100" height="100" as="geometry" />
        </mxCell>
        <mxCell id="kKuWqt6EDimaRMjclbAV-98" value="&lt;span style=&quot;font-size: 12px;&quot;&gt;SIGNAL&lt;/span&gt;" style="text;html=1;align=left;verticalAlign=bottom;whiteSpace=wrap;rounded=0;fillColor=none;spacing=0;spacingRight=8;fontSize=14;spacingLeft=8;" vertex="1" parent="kKuWqt6EDimaRMjclbAV-96">
          <mxGeometry y="60" width="90" height="20" as="geometry" />
        </mxCell>
        <mxCell id="kKuWqt6EDimaRMjclbAV-99" value="&lt;div style=&quot;border-color: var(--border-color);&quot;&gt;PASSIVE&lt;/div&gt;&lt;div style=&quot;border-color: var(--border-color);&quot;&gt;BUZZER&lt;/div&gt;" style="text;html=1;align=center;verticalAlign=top;whiteSpace=wrap;rounded=0;fontSize=16;fontStyle=1;spacingTop=0;" vertex="1" parent="kKuWqt6EDimaRMjclbAV-96">
          <mxGeometry width="100" height="50" as="geometry" />
        </mxCell>
        <mxCell id="kKuWqt6EDimaRMjclbAV-100" value="" style="endArrow=none;html=1;rounded=0;entryX=0;entryY=0.75;entryDx=0;entryDy=0;exitX=1.01;exitY=0.609;exitDx=0;exitDy=0;exitPerimeter=0;" edge="1" parent="1" source="kKuWqt6EDimaRMjclbAV-4" target="kKuWqt6EDimaRMjclbAV-97">
          <mxGeometry width="50" height="50" relative="1" as="geometry">
            <mxPoint x="220" y="324" as="sourcePoint" />
            <mxPoint x="540" y="290" as="targetPoint" />
          </mxGeometry>
        </mxCell>
        <mxCell id="kKuWqt6EDimaRMjclbAV-101" value="&lt;font style=&quot;font-size: 12px;&quot;&gt;D2&lt;/font&gt;" style="text;html=1;align=right;verticalAlign=middle;whiteSpace=wrap;rounded=0;fillColor=none;spacing=0;spacingRight=8;fontSize=14;" vertex="1" parent="1">
          <mxGeometry x="81.5" y="314.5" width="118.5" height="21" as="geometry" />
        </mxCell>
      </root>
    </mxGraphModel>
  </diagram>
</mxfile>
